<?xml version="1.0" encoding="UTF-8" standalone="no"?>
<!-- Created with Inkscape (http://www.inkscape.org/) -->

<svg
   xmlns:dc="http://purl.org/dc/elements/1.1/"
   xmlns:cc="http://creativecommons.org/ns#"
   xmlns:rdf="http://www.w3.org/1999/02/22-rdf-syntax-ns#"
   xmlns:svg="http://www.w3.org/2000/svg"
   xmlns="http://www.w3.org/2000/svg"
   xmlns:sodipodi="http://sodipodi.sourceforge.net/DTD/sodipodi-0.dtd"
   xmlns:inkscape="http://www.inkscape.org/namespaces/inkscape"
   width="266.72198"
   height="28.76"
   viewBox="0 0 70.57019 7.6094169"
   version="1.1"
   id="svg8"
   inkscape:version="0.92.4 (5da689c313, 2019-01-14)"
   sodipodi:docname="logotype.svg">
  <defs
     id="defs2" />
  <sodipodi:namedview
     id="base"
     pagecolor="#ffffff"
     bordercolor="#666666"
     borderopacity="1.0"
     inkscape:pageopacity="0.0"
     inkscape:pageshadow="2"
     inkscape:zoom="4"
     inkscape:cx="93.688316"
     inkscape:cy="18.275981"
     inkscape:document-units="mm"
     inkscape:current-layer="text12"
     showgrid="false"
     units="px"
     inkscape:window-width="1920"
     inkscape:window-height="1017"
     inkscape:window-x="1072"
     inkscape:window-y="1053"
     inkscape:window-maximized="1" />
  <metadata
     id="metadata5">
    <rdf:RDF>
      <cc:Work
         rdf:about="">
        <dc:format>image/svg+xml</dc:format>
        <dc:type
           rdf:resource="http://purl.org/dc/dcmitype/StillImage" />
        <dc:title></dc:title>
      </cc:Work>
    </rdf:RDF>
  </metadata>
  <g
     inkscape:label="Ebene 1"
     inkscape:groupmode="layer"
     id="layer1"
     transform="translate(0,-289.39057)">
    <g
       aria-label="Fruchtsaft"
       style="font-style:normal;font-variant:normal;font-weight:normal;font-stretch:normal;font-size:10.58333302px;line-height:1.25;font-family:Cunia;-inkscape-font-specification:Cunia;letter-spacing:0px;word-spacing:0px;fill:#000000;fill-opacity:1;stroke:none;stroke-width:0.26458332"
       id="text12"
       transform="translate(0.01511863,289.42393)">
      <path
         d="M -0.01511863,7.1739011 V 0.98265126 q 0,-0.20108333 0.07408333,-0.37041666 0.08466667,-0.16933333 0.21166666,-0.28574999 0.127,-0.127 0.29633333,-0.1905 Q 0.73629801,0.06190128 0.90563134,0.06190128 H 5.1495479 q 0.1058333,0 0.1905,0.08466667 0.084667,0.0846667 0.084667,0.19049999 V 1.4589012 q 0,0.1164167 -0.084667,0.1799167 -0.074083,0.074083 -0.1905,0.074083 H 1.339548 q 0.2328333,0 0.4021667,0.1693334 0.1799166,0.1693333 0.1799166,0.4021666 v 0.8995833 h 2.5399999 q 0.2751667,0 0.2751667,0.2751667 v 1.1112499 q 0,0.127 -0.074083,0.2010834 -0.074083,0.0635 -0.2010834,0.0635 H 1.339548 q 0.2116667,0 0.3915833,0.15875 0.1905,0.15875 0.1905,0.4021666 v 1.778 q 0,0.1164166 -0.074083,0.1905 -0.0635,0.074083 -0.1905,0.074083 H 0.2494647 q -0.11641667,0 -0.1905,-0.074083 -0.07408333,-0.074083 -0.07408333,-0.1904997 z"
         style="stroke-width:0.26458332"
         id="path14"
         inkscape:connector-curvature="0" />
      <path
         d="m 12.667187,7.3855677 q -0.0635,0.0635 -0.15875,0.0635 H 11.02677 q -0.306916,0 -0.433916,-0.28575 L 9.5239371,5.0466511 Q 9.4286871,4.8773178 9.2381871,4.8773178 H 7.8411872 q 0.2751666,0 0.4233333,0.1905 0.15875,0.1905 0.15875,0.3704167 v 1.7462499 q 0,0.127 -0.074083,0.2010833 -0.074083,0.0635 -0.2010833,0.0635 H 6.7087705 q -0.1164166,0 -0.1905,-0.074083 -0.074083,-0.074083 -0.074083,-0.1905 V 0.99323459 q 0,-0.39158332 0.2751667,-0.65616665 0.2751666,-0.26458332 0.6455833,-0.26458332 h 2.2436666 q 0.5926659,0 1.1218329,0.13758333 0.53975,0.12699999 0.941917,0.41274998 0.402166,0.28574999 0.645583,0.75141667 0.243417,0.4550833 0.243417,1.1112499 0,0.6561667 -0.275167,1.1535833 -0.264583,0.4974167 -0.846667,0.8149167 -0.08467,0.0635 -0.08467,0.1375833 0,0.074083 0.02117,0.1164167 l 1.322917,2.4024166 q 0.03175,0.0635 0.03175,0.1164166 0,0.074083 -0.0635,0.15875 z M 10.51877,2.4749012 q 0,-0.4339166 -0.254,-0.6561666 Q 10.021354,1.5859012 9.5980204,1.5859012 H 7.7776872 q 0.254,0 0.4127499,0.1905 0.15875,0.1799167 0.15875,0.381 v 0.8466667 q 0,0.1375833 0.09525,0.2328333 0.09525,0.09525 0.2328334,0.09525 h 0.9207499 q 0.4233336,0 0.6667496,-0.2116667 0.254,-0.2116666 0.254,-0.6455833 z"
         style="stroke-width:0.26458332"
         id="path16"
         inkscape:connector-curvature="0" />
      <path
         d="M 13.760578,4.6550678 V 0.99323459 q 0,-0.21166666 0.08467,-0.38099999 0.08467,-0.16933333 0.211666,-0.28574999 0.137584,-0.11641666 0.296334,-0.17991666 0.169333,-0.0635 0.328083,-0.0635 h 0.783167 q 0.116416,0 0.1905,0.08466666 0.08467,0.0740833 0.08467,0.1905 V 4.6339011 q 0,0.60325 0.28575,0.9630834 0.296334,0.3492499 0.92075,0.3492499 0.624417,0 0.910167,-0.3598333 0.28575,-0.3598333 0.28575,-0.9525 V 0.99323459 q 0,-0.22224999 0.08467,-0.39158332 0.09525,-0.16933333 0.22225,-0.28574999 0.137583,-0.11641667 0.296333,-0.16933333 0.169333,-0.0635 0.3175,-0.0635 h 0.783166 q 0.116417,0 0.1905,0.08466666 0.08467,0.0740833 0.08467,0.1905 V 4.6550678 q 0,0.7514167 -0.22225,1.30175 -0.22225,0.5503333 -0.645583,0.9101666 -0.41275,0.34925 -0.994833,0.5291667 -0.582084,0.1693333 -1.30175,0.1693333 -0.719667,0 -1.312334,-0.1693333 -0.582083,-0.1693334 -1.005416,-0.5291667 -0.423334,-0.3598333 -0.656167,-0.9101666 -0.22225,-0.5503333 -0.22225,-1.30175 z"
         style="stroke-width:0.26458332"
         id="path18"
         inkscape:connector-curvature="0" />
      <path
         d="m 21.280201,4.7185678 q -0.01058,-0.1481667 -0.01058,-0.3704166 0,-0.2328334 0,-0.5503334 0,-0.3386666 0,-0.5714999 0,-0.2328334 0.01058,-0.381 0.02117,-0.73025 0.275167,-1.27 0.264583,-0.53975 0.6985,-0.88899997 0.433916,-0.34924999 1.026583,-0.51858332 0.592667,-0.17991666 1.280583,-0.17991666 0.60325,0 1.185334,0.14816666 0.592666,0.14816667 1.058333,0.46566666 0.465667,0.31749999 0.751417,0.80433333 0.296333,0.47625 0.306916,1.1429999 0,0.09525 -0.0635,0.15875 -0.07408,0.0635 -0.169333,0.0635 h -1.49225 q -0.15875,0 -0.232833,-0.0635 -0.0635,-0.0635 -0.105834,-0.2116666 -0.137583,-0.4974167 -0.433916,-0.7090833 -0.28575,-0.2116667 -0.804334,-0.2116667 -1.195916,0 -1.23825,1.3229166 -0.01058,0.1481667 -0.01058,0.3598334 0,0.2116666 0,0.5185833 0,0.2963333 0,0.5185833 0,0.22225 0.01058,0.3704166 0.05292,1.3335 1.23825,1.3335 0.465667,0 0.79375,-0.2116667 0.306917,-0.2222499 0.4445,-0.7196666 0.05292,-0.1693333 0.116417,-0.2116667 0.08467,-0.0635 0.22225,-0.0635 h 1.49225 q 0.09525,0 0.169333,0.0635 0.0635,0.0635 0.0635,0.15875 -0.01058,0.6773333 -0.306916,1.1641667 -0.296334,0.4868333 -0.772584,0.8043333 -0.465666,0.3069166 -1.04775,0.4550833 -0.582083,0.1375833 -1.17475,0.1375833 -0.709083,0 -1.30175,-0.1693333 -0.582083,-0.1693333 -1.016,-0.5185833 -0.433916,-0.34925 -0.687916,-0.889 -0.254,-0.53975 -0.275167,-1.2805833 z"
         style="stroke-width:0.26458332"
         id="path20"
         inkscape:connector-curvature="0" />
      <path
         d="M 28.965024,7.2056511 V 1.0144013 q 0,-0.39158337 0.275167,-0.65616669 0.275166,-0.26458333 0.645583,-0.26458333 h 0.783167 q 0.116416,0 0.1905,0.08466667 0.08467,0.0740833 0.08467,0.19049999 V 2.8241512 q 0,0.1799167 0.127,0.254 0.127,0.0635 0.201084,0.0635 0.656166,0 1.090083,-0.09525 0.4445,-0.09525 0.85725,-0.2751667 0.08467,-0.042333 0.148166,-0.1164166 0.0635,-0.074083 0.0635,-0.1905 V 1.0144013 q 0,-0.21166671 0.07408,-0.38100003 0.08467,-0.16933333 0.211666,-0.28575 0.137584,-0.11641666 0.296334,-0.17991666 0.169333,-0.07408333 0.338666,-0.07408333 h 0.783167 q 0.116417,0 0.1905,0.08466667 0.08467,0.0740833 0.08467,0.19049999 V 7.2056511 q 0,0.127 -0.07408,0.2010833 -0.07408,0.0635 -0.201083,0.0635 h -1.42875 q -0.105833,0 -0.1905,-0.074083 -0.08467,-0.074083 -0.08467,-0.1905 v -2.50825 q 0,-0.15875 -0.105833,-0.2222499 -0.09525,-0.074083 -0.211666,-0.074083 -0.07408,0 -0.105834,0.010583 -0.518583,0.1481666 -1.04775,0.2010833 -0.518583,0.042333 -0.92075,0.042333 -0.211666,0 -0.359833,0 -0.148167,-0.010583 -0.232833,-0.021167 0.211666,0.03175 0.34925,0.1905 0.148166,0.15875 0.148166,0.3598334 v 2.0214166 q 0,0.127 -0.07408,0.2010833 -0.07408,0.0635 -0.201083,0.0635 h -1.439334 q -0.116416,0 -0.1905,-0.074083 -0.07408,-0.074083 -0.07408,-0.1905 z"
         style="stroke-width:0.26458332"
         id="path22"
         inkscape:connector-curvature="0" />
      <path
         d="m 42.312592,0.06190128 q 0.275167,0 0.275167,0.27516666 V 1.5118179 q 0,0.127 -0.07408,0.1905 -0.07408,0.074083 -0.201083,0.074083 h -2.44475 q 0.232834,0 0.41275,0.1693334 0.179917,0.1693333 0.179917,0.3809999 v 4.8471666 q 0,0.127 -0.07408,0.2010833 -0.07408,0.0635 -0.201084,0.0635 h -1.4605 q -0.105833,0 -0.1905,-0.074083 -0.08467,-0.074083 -0.08467,-0.1905 V 2.1044846 q 0,-0.1481667 -0.105834,-0.2328334 -0.09525,-0.09525 -0.211666,-0.09525 h -1.534584 q -0.127,0 -0.201083,-0.074083 -0.07408,-0.0635 -0.07408,-0.1905 V 0.97206792 q 0,-0.41274999 0.28575,-0.65616664 0.28575,-0.254 0.635,-0.254 z"
         style="stroke-width:0.26458332"
         id="path24"
         inkscape:connector-curvature="0" />
      <path
         d="m 49.517359,5.2265678 q 0,0.6455833 -0.296333,1.1006666 -0.296334,0.4445 -0.762,0.7196667 -0.465667,0.2645833 -1.037167,0.3915833 -0.5715,0.1164167 -1.11125,0.1164167 -0.370416,0 -0.772583,-0.052917 -0.402167,-0.042333 -0.783167,-0.1693333 -0.370416,-0.127 -0.709083,-0.3280834 -0.328083,-0.2116666 -0.560917,-0.5291666 -0.381,-0.4868333 -0.391583,-1.04775 0,-0.09525 0.0635,-0.15875 0.08467,-0.0635 0.169333,-0.0635 h 1.397 q 0.137584,0 0.211667,0.042333 0.08467,0.042333 0.169333,0.1481666 0.1905,0.3386667 0.508,0.4656667 0.328084,0.1164166 0.6985,0.1164166 0.15875,0 0.359834,-0.021167 0.201083,-0.03175 0.381,-0.09525 0.179916,-0.074083 0.306916,-0.2010834 0.127,-0.1269999 0.127,-0.3386666 0,-0.2751667 -0.22225,-0.4021667 -0.22225,-0.1375833 -0.4445,-0.2116666 -0.169333,-0.052917 -0.423333,-0.1164167 -0.243417,-0.0635 -0.5715,-0.1375833 -0.486833,-0.09525 -0.941917,-0.2434167 -0.455083,-0.1481666 -0.814916,-0.4021666 -0.34925,-0.254 -0.5715,-0.635 -0.211667,-0.3915833 -0.211667,-0.9630833 0,-0.60325 0.264583,-1.0265833 0.275167,-0.43391667 0.6985,-0.6985 0.423334,-0.27516665 0.941917,-0.39158332 0.529167,-0.12699999 1.04775,-0.12699999 0.359833,0 0.73025,0.06349999 0.381,0.0635 0.73025,0.20108333 0.34925,0.13758333 0.645583,0.34924999 0.306917,0.21166666 0.53975,0.508 0.359833,0.47625 0.381,0.9419166 0,0.084667 -0.0635,0.1693334 -0.0635,0.0635 -0.15875,0.0635 h -1.471083 q -0.232833,0 -0.359833,-0.1905 -0.04233,-0.1481667 -0.148167,-0.2434167 -0.105833,-0.1058333 -0.254,-0.15875 -0.137583,-0.0635 -0.28575,-0.084667 -0.148167,-0.03175 -0.28575,-0.03175 -0.15875,0 -0.328083,0.021167 -0.15875,0.021167 -0.296334,0.09525 -0.127,0.0635 -0.22225,0.1905 -0.08467,0.1164167 -0.08467,0.3069167 0,0.3069166 0.3175,0.4868333 0.3175,0.1693333 1.17475,0.34925 0.508,0.084667 0.994833,0.22225 0.497416,0.1375833 0.878416,0.3809999 0.381,0.2434167 0.613834,0.635 0.232833,0.381 0.232833,0.98425 z"
         style="stroke-width:0.26458332"
         id="path26"
         inkscape:connector-curvature="0" />
      <path
         d="m 49.993777,7.4067344 q -0.0635,-0.084667 -0.0635,-0.15875 0,-0.074083 0.01058,-0.09525 L 52.396194,0.40056794 Q 52.51261,0.09365128 52.819527,0.09365128 h 1.640417 q 0.306916,0 0.423333,0.30691666 L 57.33861,7.1527344 q 0.01058,0.021167 0.01058,0.09525 0,0.084667 -0.07408,0.15875 -0.0635,0.0635 -0.148166,0.0635 h -1.36525 q -0.264584,0 -0.359834,-0.2328333 l -0.550333,-1.49225 q -0.381,0.1481667 -0.772583,0.2434167 -0.391584,0.09525 -0.762,0.1481666 -0.359834,0.042333 -0.677334,0.0635 -0.3175,0.010583 -0.550333,0.010583 -0.148167,0 -0.254,0 -0.105833,0 -0.15875,-0.010583 0.201083,0.021167 0.3175,0.2116667 0.127,0.1799167 0.03175,0.4233333 L 51.87761,7.2374011 q -0.09525,0.2328333 -0.359833,0.2328333 h -1.36525 q -0.07408,0 -0.15875,-0.0635 z m 2.688167,-2.7093333 q 0.296333,-0.021167 0.613833,-0.074083 0.275167,-0.042333 0.5715,-0.1164167 0.306917,-0.084667 0.582083,-0.2328333 L 53.634444,1.9457346 Z"
         style="stroke-width:0.26458332"
         id="path28"
         inkscape:connector-curvature="0" />
      <path
         d="M 58.213885,7.1739011 V 0.98265126 q 0,-0.20108333 0.07408,-0.37041666 0.08467,-0.16933333 0.211666,-0.28574999 0.127,-0.127 0.296334,-0.1905 0.169333,-0.07408333 0.338666,-0.07408333 h 4.243917 q 0.105833,0 0.1905,0.08466667 0.08467,0.0846667 0.08467,0.19049999 V 1.4589012 q 0,0.1164167 -0.08467,0.1799167 -0.07408,0.074083 -0.1905,0.074083 h -3.81 q 0.232833,0 0.402167,0.1693334 0.179916,0.1693333 0.179916,0.4021666 v 0.8995833 h 2.54 q 0.275167,0 0.275167,0.2751667 v 1.1112499 q 0,0.127 -0.07408,0.2010834 -0.07408,0.0635 -0.201083,0.0635 h -3.122083 q 0.211667,0 0.391583,0.15875 0.1905,0.15875 0.1905,0.4021666 v 1.778 q 0,0.1164166 -0.07408,0.1905 -0.0635,0.074083 -0.1905,0.074083 h -1.407583 q -0.116417,0 -0.1905,-0.074083 -0.07408,-0.074083 -0.07408,-0.1905 z"
         style="stroke-width:0.26458332"
         id="path30"
         inkscape:connector-curvature="0" />
      <path
         d="m 70.279877,0.06190128 q 0.275167,0 0.275167,0.27516666 V 1.5118179 q 0,0.127 -0.07408,0.1905 -0.07408,0.074083 -0.201084,0.074083 h -2.44475 q 0.232834,0 0.41275,0.1693334 0.179917,0.1693333 0.179917,0.3809999 v 4.8471666 q 0,0.127 -0.07408,0.2010833 -0.07408,0.0635 -0.201084,0.0635 h -1.4605 q -0.105833,0 -0.1905,-0.074083 -0.08467,-0.074083 -0.08467,-0.1905 V 2.1044846 q 0,-0.1481667 -0.105834,-0.2328334 -0.09525,-0.09525 -0.211666,-0.09525 h -1.534584 q -0.127,0 -0.201083,-0.074083 -0.07408,-0.0635 -0.07408,-0.1905 V 0.97206792 q 0,-0.41274999 0.28575,-0.65616664 0.28575,-0.254 0.635,-0.254 z"
         style="stroke-width:0.26458332"
         id="path32"
         inkscape:connector-curvature="0" />
    </g>
  </g>
</svg>
