<svg xmlns="http://www.w3.org/2000/svg" xmlns:xlink="http://www.w3.org/1999/xlink" width="64" height="64" viewBox="0 0 16.933333 16.933334"><defs><linearGradient id="a"><stop offset="0" stop-color="#94d13a"/><stop offset="1" stop-color="#c5f442"/></linearGradient><linearGradient xlink:href="#a" id="b" x1="13.229" y1="286.417" x2="13.229" y2="294.354" gradientUnits="userSpaceOnUse" gradientTransform="rotate(-45 140.007 236.103) scale(.74981 .62821)"/><linearGradient xlink:href="#a" id="c" gradientUnits="userSpaceOnUse" gradientTransform="matrix(.1173 -.74058 .62048 .09827 -170.451 269)" x1="13.229" y1="286.417" x2="13.229" y2="294.354"/><linearGradient xlink:href="#a" id="d" gradientUnits="userSpaceOnUse" gradientTransform="matrix(-.74058 .1173 .09827 .62048 -11.066 109.615)" x1="13.229" y1="286.417" x2="13.229" y2="294.354"/><linearGradient xlink:href="#a" id="e" gradientUnits="userSpaceOnUse" gradientTransform="matrix(-.3404 -.66808 .55974 -.2852 -147.138 376.865)" x1="13.229" y1="286.417" x2="13.229" y2="294.354"/><linearGradient xlink:href="#a" id="f" gradientUnits="userSpaceOnUse" gradientTransform="matrix(-.66808 -.3404 -.2852 .55974 96.799 132.929)" x1="13.229" y1="286.417" x2="13.229" y2="294.354"/></defs><path d="M0 14.028a9.92 9.92 45 0 0 14.028 0 9.92 9.92 45 0 0 0-14.028z" fill="#96bf59"/><path d="M.982 13.046a8.532 8.53 45 0 0 12.065 0 8.532 8.53 45 0 0 0-12.064z" fill="#efa"/><path d="M7.715 287.782l2.946 5.752s1.054-.35 1.756-1.05c.701-.702 1.05-1.756 1.05-1.756z" fill="url(#b)" transform="translate(0 -280.067)"/><path d="M7.996 287.22l5.764 2.922s.648-.901.803-1.881c.155-.98-.182-2.037-.182-2.037z" fill="url(#c)" transform="translate(0 -280.067)"/><path d="M7.154 288.063l2.922 5.764s-.902.647-1.882.802c-.98.156-2.037-.182-2.037-.182z" fill="url(#d)" transform="translate(0 -280.067)"/><path d="M7.939 286.717l6.38-1.024s-.006-1.11-.456-1.994c-.45-.884-1.345-1.542-1.345-1.542z" fill="url(#e)" transform="translate(0 -280.067)"/><path d="M6.65 288.005l-1.024 6.38s-1.11-.005-1.994-.456c-.884-.45-1.541-1.345-1.541-1.345z" fill="url(#f)" transform="translate(0 -280.067)"/></svg>