<?xml version="1.0" encoding="UTF-8" standalone="no"?>
<!-- Created with Inkscape (http://www.inkscape.org/) -->

<svg
   xmlns:dc="http://purl.org/dc/elements/1.1/"
   xmlns:cc="http://creativecommons.org/ns#"
   xmlns:rdf="http://www.w3.org/1999/02/22-rdf-syntax-ns#"
   xmlns:svg="http://www.w3.org/2000/svg"
   xmlns="http://www.w3.org/2000/svg"
   xmlns:sodipodi="http://sodipodi.sourceforge.net/DTD/sodipodi-0.dtd"
   xmlns:inkscape="http://www.inkscape.org/namespaces/inkscape"
   width="10"
   height="10"
   viewBox="0 0 2.6458333 2.6458334"
   version="1.1"
   id="svg8"
   inkscape:version="0.92.4 (5da689c313, 2019-01-14)"
   sodipodi:docname="nsfw_new.svg">
  <defs
     id="defs2" />
  <sodipodi:namedview
     id="base"
     pagecolor="#ffffff"
     bordercolor="#666666"
     borderopacity="1.0"
     inkscape:pageopacity="0.0"
     inkscape:pageshadow="2"
     inkscape:zoom="32"
     inkscape:cx="5.4578077"
     inkscape:cy="7.0486737"
     inkscape:document-units="mm"
     inkscape:current-layer="layer1"
     showgrid="false"
     units="px"
     inkscape:snap-text-baseline="false"
     inkscape:window-width="1920"
     inkscape:window-height="1017"
     inkscape:window-x="1072"
     inkscape:window-y="1053"
     inkscape:window-maximized="1" />
  <metadata
     id="metadata5">
    <rdf:RDF>
      <cc:Work
         rdf:about="">
        <dc:format>image/svg+xml</dc:format>
        <dc:type
           rdf:resource="http://purl.org/dc/dcmitype/StillImage" />
        <dc:title></dc:title>
      </cc:Work>
    </rdf:RDF>
  </metadata>
  <g
     inkscape:label="Ebene 1"
     inkscape:groupmode="layer"
     id="layer1"
     transform="translate(0,-294.35415)">
    <path
       style="color:#000000;font-style:normal;font-variant:normal;font-weight:normal;font-stretch:normal;font-size:medium;line-height:normal;font-family:sans-serif;font-variant-ligatures:normal;font-variant-position:normal;font-variant-caps:normal;font-variant-numeric:normal;font-variant-alternates:normal;font-feature-settings:normal;text-indent:0;text-align:start;text-decoration:none;text-decoration-line:none;text-decoration-style:solid;text-decoration-color:#000000;letter-spacing:normal;word-spacing:normal;text-transform:none;writing-mode:lr-tb;direction:ltr;text-orientation:mixed;dominant-baseline:auto;baseline-shift:baseline;text-anchor:start;white-space:normal;shape-padding:0;clip-rule:nonzero;display:inline;overflow:visible;visibility:visible;opacity:1;isolation:auto;mix-blend-mode:normal;color-interpolation:sRGB;color-interpolation-filters:linearRGB;solid-color:#000000;solid-opacity:1;vector-effect:none;fill:#000000;fill-opacity:1;fill-rule:nonzero;stroke:none;stroke-width:0.91005605;stroke-linecap:round;stroke-linejoin:round;stroke-miterlimit:4;stroke-dasharray:none;stroke-dashoffset:0;stroke-opacity:1;color-rendering:auto;image-rendering:auto;shape-rendering:auto;text-rendering:auto;enable-background:accumulate"
       d="M 3.1777344 0 A 0.45506438 0.45508263 0 0 0 2.8574219 0.1328125 L 0.13476562 2.8652344 A 0.45506438 0.45508263 0 0 0 0 3.1855469 L 0 6.8203125 A 0.45506438 0.45508263 0 0 0 0.13476562 7.1425781 L 2.8574219 9.8652344 A 0.45506438 0.45508263 0 0 0 3.1777344 10 L 6.8144531 10 A 0.45506438 0.45508263 0 0 0 7.1367188 9.8652344 L 9.8671875 7.1425781 A 0.45506438 0.45508263 0 0 0 10 6.8203125 L 10 3.1855469 A 0.45506438 0.45508263 0 0 0 9.8671875 2.8652344 L 7.1367188 0.1328125 A 0.45506438 0.45508263 0 0 0 6.8144531 0 L 3.1777344 0 z M 4.4882812 2.1289062 L 5.4882812 2.1289062 L 5.3945312 6.140625 L 4.578125 6.140625 L 4.4882812 2.1289062 z M 5 6.8515625 C 5.1666667 6.8515625 5.2981771 6.9010417 5.3945312 7 C 5.4908854 7.0963542 5.5390625 7.21875 5.5390625 7.3671875 C 5.5390625 7.5104167 5.4921875 7.6302083 5.3984375 7.7265625 C 5.3046875 7.8229167 5.171875 7.8710938 5 7.8710938 C 4.828125 7.8710938 4.6953125 7.8229167 4.6015625 7.7265625 C 4.5078125 7.6302083 4.4609375 7.5104167 4.4609375 7.3671875 C 4.4609375 7.21875 4.5091146 7.0963542 4.6054688 7 C 4.7018229 6.9010417 4.8333333 6.8515625 5 6.8515625 z "
       transform="matrix(0.26458333,0,0,0.26458333,0,294.35415)"
       id="path10" />
    <text
       xml:space="preserve"
       style="font-style:normal;font-variant:normal;font-weight:normal;font-stretch:normal;font-size:10.58333302px;line-height:1.25;font-family:Cunia;-inkscape-font-specification:Cunia;letter-spacing:0px;word-spacing:0px;fill:#000000;fill-opacity:1;stroke:none;stroke-width:0.26458332"
       x="2.157366"
       y="294.59708"
       id="text4560"><tspan
         sodipodi:role="line"
         id="tspan4558"
         x="2.157366"
         y="304.27057"
         style="stroke-width:0.26458332"></tspan></text>
  </g>
</svg>
